<?xml version="1.0" encoding="UTF-8"?>
<svg id="Layer_1" data-name="Layer 1" xmlns="http://www.w3.org/2000/svg" xmlns:xlink="http://www.w3.org/1999/xlink" viewBox="0 0 267.6 198.48">
  <defs>
    <style>
      .cls-1 {
        fill: #fff;
      }

      .cls-2 {
        fill: #45bea9;
        opacity: .25;
      }

      .cls-3 {
        font-family: Helvetica-Bold, Helvetica;
        font-size: 13px;
      }

      .cls-3, .cls-4, .cls-5 {
        fill: #010101;
      }

      .cls-4 {
        font-size: 11px;
      }

      .cls-4, .cls-5 {
        font-family: Helvetica, Helvetica;
      }

      .cls-6 {
        letter-spacing: -.03em;
      }

      .cls-7 {
        letter-spacing: .01em;
      }

      .cls-8 {
        fill: #94499c;
      }

      .cls-8, .cls-9 {
        opacity: .15;
      }

      .cls-10 {
        stroke: #010101;
      }

      .cls-10, .cls-11, .cls-12, .cls-13 {
        fill: none;
      }

      .cls-10, .cls-11, .cls-13 {
        stroke-linejoin: round;
        stroke-width: 1.07px;
      }

      .cls-11 {
        stroke: #f68832;
      }

      .cls-14 {
        letter-spacing: .04em;
      }

      .cls-15 {
        clip-path: url(#clippath);
      }

      .cls-5 {
        font-size: 9px;
      }

      .cls-9 {
        fill: #f68832;
      }

      .cls-13 {
        stroke: #94499c;
      }
    </style>
    <clipPath id="clippath">
      <rect class="cls-12" x="49.17" y="28.31" width="135.34" height="135.34"/>
    </clipPath>
  </defs>
  <rect class="cls-2" width="267.6" height="198.48" rx="12" ry="12"/>
  <g class="cls-15">
    <path class="cls-1" d="M49.17,163.65H184.51V29.75c0-.8-.64-1.44-1.44-1.44H49.17V163.65Z"/>
    <polygon class="cls-9" points="55.33 97.27 56.35 96 57.38 96.1 58.4 95.47 59.43 94.95 60.45 95.1 61.48 92.36 62.5 90.83 63.53 89.58 64.55 88.02 65.58 89.71 66.6 89.85 67.63 89.67 68.65 91.77 69.68 90.79 70.71 85.44 71.73 82.02 72.76 75.38 73.78 72.25 74.81 69.13 75.83 74.58 76.86 78.94 77.88 79.45 78.91 80.06 79.93 78.91 80.96 75.99 81.98 78.54 83.01 83.64 84.03 87.22 85.06 91.53 86.08 98.39 87.11 99.03 88.14 95.03 89.16 89.15 90.19 75.04 91.21 58.34 92.24 71.05 93.26 76.86 94.29 83.68 95.31 106.96 96.34 113.85 97.36 117.16 98.39 113.41 99.41 114.63 100.44 117.81 101.46 122.9 102.49 118.47 103.51 112.04 104.54 114.5 105.56 115.89 106.59 129.85 107.62 109.9 108.64 112.05 109.67 114.59 110.69 107.56 111.72 125.6 112.74 105.14 113.77 113.09 114.79 116.17 115.82 101.09 117.87 134.7 118.89 105.13 119.92 114.52 120.94 115.51 121.97 109.72 122.99 117.21 124.02 105.51 125.05 119.26 126.07 113.19 127.1 110.39 128.12 123.12 129.15 109.1 130.17 111.22 131.2 110 132.22 118.09 133.25 121.8 134.27 114.94 135.3 115.93 136.32 111.48 137.35 109.23 138.37 111.34 139.4 108.99 140.42 104.36 141.45 101.03 142.47 99.82 143.5 99.7 144.53 96.91 145.55 88.39 146.58 80.15 147.6 72.17 148.63 64.04 149.65 58.43 150.68 57.72 151.7 64.68 152.73 74.88 153.75 78.8 154.78 82.04 155.8 81.51 156.83 84.52 157.85 83.97 158.88 86.24 159.9 84.85 160.93 85.72 161.96 85.96 162.98 86.26 164.01 88.28 165.03 88.43 166.06 89.8 167.08 91.92 168.11 92 169.13 92.53 170.16 93.51 171.18 93.66 172.21 94.16 173.23 94.43 174.26 95.37 175.28 94.9 176.31 96.24 177.33 96.77 178.36 97.96 178.36 99 177.33 97.89 176.31 97.23 175.28 96 174.26 96.43 173.23 95.48 172.21 95.21 171.18 94.64 170.16 94.56 169.13 93.61 168.11 93.11 167.08 93.01 166.06 90.91 165.03 89.61 164.01 89.37 162.98 87.47 161.96 87.11 160.93 86.91 159.9 86.07 158.88 87.37 157.85 85.21 156.83 85.74 155.8 82.85 154.78 83.3 153.75 80.21 152.73 76.28 151.7 66.43 150.68 59.59 149.65 60.33 148.63 65.73 147.6 73.67 146.58 81.53 145.55 89.59 144.53 97.89 143.5 100.74 142.47 100.8 141.45 102.05 140.42 105.29 139.4 109.93 138.37 112.33 137.35 110.03 136.32 112.42 135.3 116.74 134.27 115.74 133.25 122.68 132.22 118.98 131.2 110.73 130.17 112.42 129.15 109.69 128.12 124.37 127.1 111.07 126.07 113.85 125.05 120.17 124.02 106 122.99 118.09 121.97 110.35 120.94 116.14 119.92 115.31 118.89 105.37 117.87 135.98 115.82 101.81 114.79 116.9 113.77 114.36 112.74 105.97 111.72 127.19 110.69 108.04 109.67 115.26 108.64 112.57 107.62 110.36 106.59 130.9 105.56 116.71 104.54 115.21 103.51 112.7 102.49 119.34 101.46 124.12 100.44 118.9 99.41 115.56 98.39 114.19 97.36 118.09 96.34 114.76 95.31 107.9 94.29 85.26 93.26 78.55 92.24 72.88 91.21 60.49 90.19 76.72 89.16 90.29 88.14 96.04 87.11 100.06 86.08 99.41 85.06 92.75 84.03 88.48 83.01 85.19 81.98 80.14 80.96 77.71 79.93 80.4 78.91 81.51 77.88 80.79 76.86 80.38 75.83 76.08 74.81 70.95 73.78 73.9 72.76 76.89 71.73 83.36 70.71 86.68 69.68 91.89 68.65 92.81 67.63 90.87 66.6 91.05 65.58 90.83 64.55 89.36 63.53 90.75 62.5 92.01 61.48 93.45 60.45 96.09 59.43 96.04 58.4 96.63 57.38 97.15 56.35 97.11 55.33 98.23 55.33 97.27"/>
    <polygon class="cls-8" points="55.33 91.62 56.35 92.06 57.38 92.32 58.4 91.74 59.43 89.9 60.45 89.59 61.48 86.02 62.5 82.3 63.53 80.25 64.55 78.28 65.58 81.45 66.6 81.69 67.63 82.95 68.65 84.69 69.68 82.94 70.71 75.25 71.73 70.02 72.76 62.02 73.78 56.66 74.81 52.21 75.83 60.59 76.86 67.08 77.88 68.17 78.91 67.68 79.93 66.01 80.96 61.69 81.98 65.33 83.01 73.22 84.03 74.96 85.06 81.45 86.08 90.96 87.11 91.82 88.14 87.44 89.16 78.28 90.19 58.62 91.21 34.46 92.24 53.33 93.26 64.14 94.29 75.94 95.31 107.79 96.34 118.15 97.36 123.29 98.39 117.9 99.41 121.11 100.44 126.03 101.46 133.24 102.49 123.91 103.51 115.53 104.54 119.15 105.56 121.55 106.59 142.48 107.62 111.92 108.64 115.21 109.67 121.33 110.69 109.64 111.72 145.2 112.74 111.38 113.77 129.27 114.79 124.28 115.82 106.21 117.87 156.05 118.89 105.55 119.92 123.33 120.94 122.55 121.97 114.08 122.99 125.41 124.02 108.53 125.05 129.55 126.07 117.25 127.1 115.48 128.12 135.89 129.15 111.64 130.17 119.76 131.2 114.07 132.22 123.34 133.25 127.39 134.27 119.32 135.3 119.87 136.32 113.57 137.35 109.16 138.37 112.02 139.4 107.5 140.42 102.17 141.45 96.25 142.47 94.04 143.5 93.81 144.53 89.26 145.55 79.29 146.58 67.3 147.6 56.8 148.63 46.25 149.65 40.46 150.68 38.98 151.7 46.92 152.73 60.01 153.75 66.32 154.78 69.76 155.8 70.59 156.83 73.02 157.85 74.58 158.88 76.6 159.9 77.32 160.93 76.38 161.96 75.97 162.98 76.7 164.01 78.8 165.03 78.64 166.06 81.03 167.08 83.98 168.11 85.53 169.13 85.91 170.16 87.6 171.18 88.06 172.21 88.55 173.23 88.03 174.26 88.43 175.28 88.4 176.31 90.12 177.33 91.21 178.36 92.9 178.36 93.99 177.33 92.41 176.31 91.17 175.28 89.59 174.26 89.63 173.23 89.18 172.21 89.63 171.18 89.15 170.16 88.7 169.13 87.12 168.11 86.71 167.08 85.2 166.06 82.28 165.03 80 164.01 80.04 162.98 78.11 161.96 77.3 160.93 77.65 159.9 78.61 158.88 77.89 157.85 75.96 156.83 74.44 155.8 72.16 154.78 71.25 153.75 67.82 152.73 61.68 151.7 48.9 150.68 41.1 149.65 42.58 148.63 48.18 147.6 58.57 146.58 68.84 145.55 80.61 144.53 90.4 143.5 94.99 142.47 95.21 141.45 97.4 140.42 103.21 139.4 108.48 138.37 113.01 137.35 110.01 136.32 114.41 135.3 120.78 134.27 120.23 133.25 128.39 132.22 124.32 131.2 114.81 130.17 121.01 129.15 112.28 128.12 137.15 127.1 116.25 126.07 117.95 125.05 130.51 124.02 109.04 122.99 126.33 121.97 114.82 120.94 123.3 119.92 124.26 118.89 105.8 117.87 157.5 115.82 106.97 114.79 125.08 113.77 130.67 112.74 112.34 111.72 146.84 110.69 110.14 109.67 122.13 108.64 115.83 107.62 112.46 106.59 143.71 105.56 122.4 104.54 119.89 103.51 116.38 102.49 124.92 101.46 134.47 100.44 127.16 99.41 122.1 98.39 118.69 97.36 124.24 96.34 119.13 95.31 108.76 94.29 77.55 93.26 66.08 92.24 55.45 91.21 36.92 90.19 60.49 89.16 79.61 88.14 88.56 87.11 93.04 86.08 92.32 85.06 82.8 84.03 76.45 83.01 74.83 81.98 67.05 80.96 63.51 79.93 67.66 78.91 69.27 77.88 69.66 76.86 68.66 75.83 62.36 74.81 54.25 73.78 58.5 72.76 63.82 71.73 71.67 70.71 76.69 69.68 84.18 68.65 85.89 67.63 84.3 66.6 83.1 65.58 82.7 64.55 79.74 63.53 81.55 62.5 83.66 61.48 87.27 60.45 90.69 59.43 91.08 58.4 92.95 57.38 93.43 56.35 93.23 55.33 92.85 55.33 91.62"/>
    <polyline class="cls-11" points="55.33 97.75 56.35 96.56 57.38 96.63 58.4 96.05 59.43 95.5 60.45 95.59 61.48 92.9 62.5 91.42 63.53 90.16 64.55 88.69 65.58 90.27 66.6 90.45 67.63 90.27 68.65 92.29 69.68 91.34 70.71 86.06 71.73 82.69 72.76 76.13 73.78 73.07 74.81 70.04 75.83 75.33 76.86 79.66 77.88 80.12 78.91 80.79 79.93 79.66 80.96 76.85 81.98 79.34 83.01 84.41 84.03 87.85 85.06 92.14 86.08 98.9 87.11 99.54 88.14 95.54 89.16 89.72 90.19 75.88 91.21 59.41 92.24 71.96 93.26 77.7 94.29 84.47 95.31 107.43 96.34 114.3 97.36 117.63 98.39 113.8 99.41 115.1 100.44 118.35 101.46 123.51 102.49 118.91 103.51 112.37 104.54 114.85 105.56 116.3 106.59 130.37 107.62 110.13 108.64 112.31 109.67 114.92 110.69 107.8 111.72 126.4 112.74 105.55 113.77 113.72 114.79 116.53 115.82 101.45 117.87 135.34 118.89 105.25 119.92 114.91 120.94 115.83 121.97 110.04 122.99 117.65 124.02 105.76 125.05 119.71 126.07 113.52 127.1 110.73 128.12 123.74 129.15 109.39 130.17 111.82 131.2 110.36 132.22 118.53 133.25 122.24 134.27 115.34 135.3 116.33 136.32 111.95 137.35 109.63 138.37 111.84 139.4 109.46 140.42 104.83 141.45 101.54 142.47 100.31 143.5 100.22 144.53 97.4 145.55 88.99 146.58 80.84 147.6 72.92 148.63 64.89 149.65 59.38 150.68 58.66 151.7 65.55 152.73 75.58 153.75 79.51 154.78 82.67 155.8 82.18 156.83 85.13 157.85 84.59 158.88 86.81 159.9 85.46 160.93 86.31 161.96 86.54 162.98 86.86 164.01 88.82 165.03 89.02 166.06 90.35 167.08 92.47 168.11 92.56 169.13 93.07 170.16 94.03 171.18 94.15 172.21 94.69 173.23 94.96 174.26 95.9 175.28 95.45 176.31 96.74 177.33 97.33 178.36 98.48"/>
    <polyline class="cls-13" points="55.33 92.24 56.35 92.65 57.38 92.88 58.4 92.34 59.43 90.49 60.45 90.14 61.48 86.65 62.5 82.98 63.53 80.9 64.55 79.01 65.58 82.07 66.6 82.4 67.63 83.62 68.65 85.29 69.68 83.56 70.71 75.97 71.73 70.85 72.76 62.92 73.78 57.58 74.81 53.23 75.83 61.48 76.86 67.87 77.88 68.92 78.91 68.47 79.93 66.83 80.96 62.6 81.98 66.19 83.01 74.03 84.03 75.71 85.06 82.12 86.08 91.64 87.11 92.43 88.14 88 89.16 78.95 90.19 59.55 91.21 35.69 92.24 54.39 93.26 65.11 94.29 76.75 95.31 108.27 96.34 118.64 97.36 123.77 98.39 118.3 99.41 121.6 100.44 126.59 101.46 133.86 102.49 124.42 103.51 115.96 104.54 119.52 105.56 121.97 106.59 143.09 107.62 112.19 108.64 115.52 109.67 121.73 110.69 109.89 111.72 146.02 112.74 111.86 113.77 129.97 114.79 124.68 115.82 106.59 117.87 156.77 118.89 105.68 119.92 123.79 120.94 122.93 121.97 114.45 122.99 125.87 124.02 108.78 125.05 130.03 126.07 117.6 127.1 115.86 128.12 136.52 129.15 111.96 130.17 120.39 131.2 114.44 132.22 123.83 133.25 127.89 134.27 119.77 135.3 120.33 136.32 113.99 137.35 109.58 138.37 112.51 139.4 107.99 140.42 102.69 141.45 96.82 142.47 94.62 143.5 94.4 144.53 89.83 145.55 79.95 146.58 68.07 147.6 57.69 148.63 47.22 149.65 41.52 150.68 40.04 151.7 47.91 152.73 60.85 153.75 67.07 154.78 70.51 155.8 71.37 156.83 73.73 157.85 75.27 158.88 77.25 159.9 77.97 160.93 77.01 161.96 76.63 162.98 77.41 164.01 79.42 165.03 79.32 166.06 81.65 167.08 84.59 168.11 86.12 169.13 86.52 170.16 88.15 171.18 88.6 172.21 89.09 173.23 88.6 174.26 89.03 175.28 89 176.31 90.65 177.33 91.81 178.36 93.44"/>
  </g>
  <line class="cls-10" x1="49.17" y1="163.65" x2="49.17" y2="28.31"/>
  <text class="cls-5" transform="translate(26.48 139.48)"><tspan x="0" y="0">−0.1</tspan></text>
  <text class="cls-5" transform="translate(31.73 108.75)"><tspan x="0" y="0">0.0</tspan></text>
  <text class="cls-5" transform="translate(31.73 78.01)"><tspan x="0" y="0">0.1</tspan></text>
  <text class="cls-5" transform="translate(31.73 47.28)"><tspan x="0" y="0">0.2</tspan></text>
  <line class="cls-10" x1="46.43" y1="136.25" x2="49.17" y2="136.25"/>
  <line class="cls-10" x1="46.43" y1="105.52" x2="49.17" y2="105.52"/>
  <line class="cls-10" x1="46.43" y1="74.78" x2="49.17" y2="74.78"/>
  <line class="cls-10" x1="46.43" y1="44.05" x2="49.17" y2="44.05"/>
  <line class="cls-10" x1="49.17" y1="163.65" x2="184.51" y2="163.65"/>
  <line class="cls-10" x1="55.33" y1="166.39" x2="55.33" y2="163.65"/>
  <line class="cls-10" x1="86.08" y1="166.39" x2="86.08" y2="163.65"/>
  <line class="cls-10" x1="116.84" y1="166.39" x2="116.84" y2="163.65"/>
  <line class="cls-10" x1="147.6" y1="166.39" x2="147.6" y2="163.65"/>
  <line class="cls-10" x1="178.36" y1="166.39" x2="178.36" y2="163.65"/>
  <text class="cls-5" transform="translate(47.69 175.04)"><tspan x="0" y="0">−60</tspan></text>
  <text class="cls-5" transform="translate(78.45 175.04)"><tspan x="0" y="0">−30</tspan></text>
  <text class="cls-5" transform="translate(114.34 175.04)"><tspan x="0" y="0">0</tspan></text>
  <text class="cls-5" transform="translate(142.6 175.04)"><tspan x="0" y="0">30</tspan></text>
  <text class="cls-5" transform="translate(173.36 175.04)"><tspan x="0" y="0">60</tspan></text>
  <text class="cls-4" transform="translate(41.95 187.66)"><tspan x="0" y="0">Distance from motif center [bp]</tspan></text>
  <text class="cls-4" transform="translate(21.32 166.05) rotate(-90)"><tspan x="0" y="0">mean </tspan><tspan class="cls-6" x="30.57" y="0">F</tspan><tspan x="36.97" y="0">ootp</tspan><tspan class="cls-7" x="58.38" y="0">r</tspan><tspan x="62.2" y="0">int score </tspan><tspan class="cls-14" x="106.83" y="0">±</tspan><tspan x="113.25" y="0" xml:space="preserve"> SEM</tspan></text>
  <rect class="cls-1" x="195.47" y="65.32" width="67.99" height="61.32" rx="5.36" ry="5.36"/>
  <text class="cls-4" transform="translate(200.95 79.91)"><tspan x="0" y="0">sample</tspan></text>
  <rect class="cls-1" x="200.95" y="86.6" width="17.28" height="17.28"/>
  <rect class="cls-9" x="201.66" y="87.31" width="15.86" height="15.86"/>
  <line class="cls-11" x1="202.68" y1="95.24" x2="216.5" y2="95.24"/>
  <rect class="cls-1" x="200.95" y="103.88" width="17.28" height="17.28"/>
  <rect class="cls-8" x="201.66" y="104.59" width="15.86" height="15.86"/>
  <line class="cls-13" x1="202.68" y1="112.52" x2="216.5" y2="112.52"/>
  <text class="cls-5" transform="translate(223.71 98.47)"><tspan x="0" y="0">Group A</tspan></text>
  <text class="cls-5" transform="translate(223.71 115.75)"><tspan x="0" y="0">Group B</tspan></text>
  <text class="cls-3" transform="translate(99.51 19.97)"><tspan x="0" y="0">CTCF</tspan></text>
</svg>