<?xml version="1.0" encoding="utf-8"?>
<!-- Generator: Adobe Illustrator 22.0.1, SVG Export Plug-In . SVG Version: 6.00 Build 0)  -->
<svg version="1.1" id="Layer_1" xmlns="http://www.w3.org/2000/svg" xmlns:xlink="http://www.w3.org/1999/xlink" x="0px" y="0px"
	 viewBox="0 0 518 193.3" style="enable-background:new 0 0 518 193.3;" xml:space="preserve">
<style type="text/css">
	.st0{opacity:0.25;fill:#44BEA8;}
	.st1{fill:#00A651;}
	.st2{font-family:'Helvetica';}
	.st3{font-size:12px;}
	.st4{fill:#D0181F;}
	.st5{fill:#FFFFFF;}
	.st6{fill:none;stroke:#000000;stroke-width:0.8;stroke-linejoin:round;stroke-miterlimit:10;}
	.st7{font-size:5.5849px;}
	
		.st8{clip-path:url(#SVGID_2_);fill:none;stroke:#2278B5;stroke-width:1.5;stroke-linecap:square;stroke-linejoin:round;stroke-miterlimit:10;}
	
		.st9{clip-path:url(#SVGID_4_);fill:none;stroke:#F57F20;stroke-width:1.5;stroke-linecap:square;stroke-linejoin:round;stroke-miterlimit:10;}
	
		.st10{clip-path:url(#SVGID_6_);fill:none;stroke:#2FA148;stroke-width:1.5;stroke-linecap:square;stroke-linejoin:round;stroke-miterlimit:10;}
	
		.st11{clip-path:url(#SVGID_8_);fill:none;stroke:#D62A28;stroke-width:1.5;stroke-linecap:square;stroke-linejoin:round;stroke-miterlimit:10;}
	.st12{fill:none;stroke:#000000;stroke-width:0.8;stroke-linecap:square;stroke-miterlimit:10;}
	.st13{opacity:0.8;fill:none;stroke:#CCCCCC;stroke-miterlimit:10;}
	.st14{fill:none;stroke:#2278B5;stroke-width:1.5;stroke-linecap:square;stroke-linejoin:round;stroke-miterlimit:10;}
	.st15{fill:none;stroke:#F57F20;stroke-width:1.5;stroke-linecap:square;stroke-linejoin:round;stroke-miterlimit:10;}
	.st16{fill:none;stroke:#2FA148;stroke-width:1.5;stroke-linecap:square;stroke-linejoin:round;stroke-miterlimit:10;}
	.st17{fill:none;stroke:#D62A28;stroke-width:1.5;stroke-linecap:square;stroke-linejoin:round;stroke-miterlimit:10;}
</style>
<path class="st0" d="M504.4,192H13.8c-6.6,0-12-5.4-12-12V13.5c0-6.6,5.4-12,12-12h490.6c6.6,0,12,5.4,12,12V180
	C516.4,186.6,511,192,504.4,192z"/>
<text transform="matrix(1 0 0 1 388.9537 16.75)" class="st1 st2 st3">GOOD</text>
<text transform="matrix(1 0 0 1 124.9976 16.75)" class="st4 st2 st3">BAD</text>
<g>
	<rect x="306.6" y="21.9" class="st5" width="199.4" height="148.6"/>
	<line x1="315.7" y1="170.5" x2="315.7" y2="172.4"/>
	<line class="st6" x1="315.7" y1="170.5" x2="315.7" y2="172.4"/>
	<text transform="matrix(1 0 0 1 311.2393 178.6328)" class="st2 st7">0.0</text>
	<line x1="351.9" y1="170.5" x2="351.9" y2="172.4"/>
	<line class="st6" x1="351.9" y1="170.5" x2="351.9" y2="172.4"/>
	<text transform="matrix(1 0 0 1 347.5029 178.6328)" class="st2 st7">0.2</text>
	<line x1="388.2" y1="170.5" x2="388.2" y2="172.4"/>
	<line class="st6" x1="388.2" y1="170.5" x2="388.2" y2="172.4"/>
	<text transform="matrix(1 0 0 1 383.7666 178.6328)" class="st2 st7">0.4</text>
	<line x1="424.5" y1="170.5" x2="424.5" y2="172.4"/>
	<line class="st6" x1="424.5" y1="170.5" x2="424.5" y2="172.4"/>
	<text transform="matrix(1 0 0 1 420.0303 178.6328)" class="st2 st7">0.6</text>
	<line x1="460.7" y1="170.5" x2="460.7" y2="172.4"/>
	<line class="st6" x1="460.7" y1="170.5" x2="460.7" y2="172.4"/>
	<text transform="matrix(1 0 0 1 456.2939 178.6328)" class="st2 st7">0.8</text>
	<line x1="497" y1="170.5" x2="497" y2="172.4"/>
	<line class="st6" x1="497" y1="170.5" x2="497" y2="172.4"/>
	<text transform="matrix(1 0 0 1 492.5566 178.6328)" class="st2 st7">1.0</text>
	<text transform="matrix(1 0 0 1 400.0918 186.2686)" class="st2 st7">rank</text>
	<line x1="306.6" y1="163.7" x2="304.7" y2="163.7"/>
	<line class="st6" x1="306.6" y1="163.7" x2="304.7" y2="163.7"/>
	<text transform="matrix(1 0 0 1 293.8223 165.8477)" class="st2 st7">0.0</text>
	<line x1="306.6" y1="136.7" x2="304.7" y2="136.7"/>
	<line class="st6" x1="306.6" y1="136.7" x2="304.7" y2="136.7"/>
	<text transform="matrix(1 0 0 1 293.8223 138.8252)" class="st2 st7">0.2</text>
	<line x1="306.6" y1="109.7" x2="304.7" y2="109.7"/>
	<line class="st6" x1="306.6" y1="109.7" x2="304.7" y2="109.7"/>
	<text transform="matrix(1 0 0 1 293.8223 111.8027)" class="st2 st7">0.4</text>
	<line x1="306.6" y1="82.7" x2="304.7" y2="82.7"/>
	<line class="st6" x1="306.6" y1="82.7" x2="304.7" y2="82.7"/>
	<text transform="matrix(1 0 0 1 293.8223 84.7803)" class="st2 st7">0.6</text>
	<line x1="306.6" y1="55.6" x2="304.7" y2="55.6"/>
	<line class="st6" x1="306.6" y1="55.6" x2="304.7" y2="55.6"/>
	<text transform="matrix(1 0 0 1 293.8223 57.7588)" class="st2 st7">0.8</text>
	<line x1="306.6" y1="28.6" x2="304.7" y2="28.6"/>
	<line class="st6" x1="306.6" y1="28.6" x2="304.7" y2="28.6"/>
	<text transform="matrix(1 0 0 1 293.8223 30.7363)" class="st2 st7">1.0</text>
	<text transform="matrix(-6.123234e-17 -1 1 -6.123234e-17 290.4277 151.6406)" class="st2 st7">fraction w.r.t. bin with highest coverage</text>
	<g>
		<defs>
			<rect id="SVGID_1_" x="306.6" y="21.9" width="199.4" height="148.6"/>
		</defs>
		<clipPath id="SVGID_2_">
			<use xlink:href="#SVGID_1_"  style="overflow:visible;"/>
		</clipPath>
		<polyline class="st8" points="315.7,163.7 457.8,163.7 458.5,163.5 459.2,163.2 462.3,161.4 465.6,159.4 467.5,157.8 471.7,154.2 
			472.6,153.3 473.8,151.9 475.1,150 485.2,135.5 486.1,134.1 487.7,130.7 489,127.6 489.9,125 491.2,121.1 492.2,117.6 
			492.9,114.2 493.6,110.7 494.2,107.2 494.7,103.1 495.1,98.3 495.6,92.7 495.9,86 496.3,77.9 496.5,67.5 496.8,54.2 496.9,37.7 
			497,28.6 		"/>
	</g>
	<g>
		<defs>
			<rect id="SVGID_3_" x="306.6" y="21.9" width="199.4" height="148.6"/>
		</defs>
		<clipPath id="SVGID_4_">
			<use xlink:href="#SVGID_3_"  style="overflow:visible;"/>
		</clipPath>
		<polyline class="st9" points="315.7,163.7 427.1,163.7 428.4,163.5 430.1,163.1 437.8,161.2 439.6,160.6 447.4,157.9 449,157.2 
			451,156.2 454.1,154.4 469.1,145.5 470.8,144.3 474,141.6 477.2,138.6 478.7,137 482.5,132.5 483.6,130.9 485.1,128.7 486.2,127 
			487.8,124.1 489,121.6 490,119.1 490.9,116.5 491.7,113.9 492.5,111.1 493.1,108.2 493.7,104.9 494.3,101.2 494.8,97 495.2,92 
			495.7,86.1 496,79 496.4,70.2 496.6,59.2 496.9,45.2 497,28.9 497,28.6 		"/>
	</g>
	<g>
		<defs>
			<rect id="SVGID_5_" x="306.6" y="21.9" width="199.4" height="148.6"/>
		</defs>
		<clipPath id="SVGID_6_">
			<use xlink:href="#SVGID_5_"  style="overflow:visible;"/>
		</clipPath>
		<polyline class="st10" points="315.7,163.7 403.3,163.7 405,163.5 408.4,162.9 415.8,161.5 418.6,160.8 427,158.5 429.1,157.8 
			431.5,156.9 437.2,154.4 452.8,147.4 455.2,146.1 458.1,144.4 461,142.5 465.7,139.1 467.8,137.3 473.2,132.5 475,130.8 
			477.4,128.2 479.9,125.3 481.6,123 483.4,120.6 485.1,118 486.3,115.9 487.7,113.3 488.9,110.9 490,108.2 491,105.7 491.8,103 
			492.6,100.2 493.3,97.3 493.9,94.2 494.5,90.6 494.9,86.6 495.4,81.8 495.8,76.4 496.2,69.7 496.5,61.2 496.7,50.8 496.9,38 
			497,28.6 		"/>
	</g>
	<g>
		<defs>
			<rect id="SVGID_7_" x="306.6" y="21.9" width="199.4" height="148.6"/>
		</defs>
		<clipPath id="SVGID_8_">
			<use xlink:href="#SVGID_7_"  style="overflow:visible;"/>
		</clipPath>
		<polyline class="st11" points="315.7,163.7 421.7,163.7 423.1,163.5 424.5,163.1 433.3,160.8 434.9,160.2 443.5,157 445.1,156.2 
			447.3,155 449.3,153.8 468,141.7 469.7,140.3 471.9,138.4 474,136.4 477.3,132.9 478.9,131.1 483.1,125.6 484.4,123.7 486,121.2 
			487,119.2 488.7,115.9 489.9,113.2 490.9,110.6 491.8,107.9 492.5,105.2 493.2,102.4 493.8,99.3 494.4,95.8 494.9,91.8 
			495.3,87.3 495.7,81.8 496.1,75.4 496.4,67.3 496.7,57 496.9,43.9 497,28.6 		"/>
	</g>
	<line class="st12" x1="306.6" y1="170.5" x2="306.6" y2="21.9"/>
	<line class="st12" x1="506.1" y1="170.5" x2="506.1" y2="21.9"/>
	<line class="st12" x1="306.6" y1="170.5" x2="506.1" y2="170.5"/>
	<line class="st12" x1="306.6" y1="21.9" x2="506.1" y2="21.9"/>
	<g>
		<path class="st13" d="M309.9,153.7h43.9c0.3,0,0.5-0.4,0.5-1.1v-32.8c0-0.7-0.2-1.1-0.5-1.1h-43.9c-0.3,0-0.5,0.4-0.5,1.1v32.8
			C309.4,153.4,309.6,153.7,309.9,153.7z"/>
	</g>
	<line class="st14" x1="311.6" y1="124.2" x2="322.8" y2="124.2"/>
	<text transform="matrix(1 0 0 1 327.2803 126.1279)" class="st2 st7">sample A</text>
	<line class="st15" x1="311.6" y1="132.5" x2="322.8" y2="132.5"/>
	<text transform="matrix(1 0 0 1 327.2803 134.4795)" class="st2 st7">sample B</text>
	<line class="st16" x1="311.6" y1="140.9" x2="322.8" y2="140.9"/>
	<text transform="matrix(1 0 0 1 327.2803 142.8311)" class="st2 st7">sample C</text>
	<line class="st17" x1="311.6" y1="149.2" x2="322.8" y2="149.2"/>
	<text transform="matrix(1 0 0 1 327.2803 151.1816)" class="st2 st7">sample D</text>
</g>
<g>
	<rect x="38.5" y="21.9" class="st5" width="199.4" height="148.6"/>
	<line x1="47.5" y1="170.5" x2="47.5" y2="172.4"/>
	<line class="st6" x1="47.5" y1="170.5" x2="47.5" y2="172.4"/>
	<text transform="matrix(1 0 0 1 43.0876 178.6328)" class="st2 st7">0.0</text>
	<line x1="83.8" y1="170.5" x2="83.8" y2="172.4"/>
	<line class="st6" x1="83.8" y1="170.5" x2="83.8" y2="172.4"/>
	<text transform="matrix(1 0 0 1 79.3513 178.6328)" class="st2 st7">0.2</text>
	<line x1="120.1" y1="170.5" x2="120.1" y2="172.4"/>
	<line class="st6" x1="120.1" y1="170.5" x2="120.1" y2="172.4"/>
	<text transform="matrix(1 0 0 1 115.6149 178.6328)" class="st2 st7">0.4</text>
	<line x1="156.3" y1="170.5" x2="156.3" y2="172.4"/>
	<line class="st6" x1="156.3" y1="170.5" x2="156.3" y2="172.4"/>
	<text transform="matrix(1 0 0 1 151.8786 178.6328)" class="st2 st7">0.6</text>
	<line x1="192.6" y1="170.5" x2="192.6" y2="172.4"/>
	<line class="st6" x1="192.6" y1="170.5" x2="192.6" y2="172.4"/>
	<text transform="matrix(1 0 0 1 188.1423 178.6328)" class="st2 st7">0.8</text>
	<line x1="228.8" y1="170.5" x2="228.8" y2="172.4"/>
	<line class="st6" x1="228.8" y1="170.5" x2="228.8" y2="172.4"/>
	<text transform="matrix(1 0 0 1 224.405 178.6328)" class="st2 st7">1.0</text>
	<text transform="matrix(1 0 0 1 131.9401 186.2686)" class="st2 st7">rank</text>
	<line x1="38.5" y1="163.7" x2="36.5" y2="163.7"/>
	<line class="st6" x1="38.5" y1="163.7" x2="36.5" y2="163.7"/>
	<text transform="matrix(1 0 0 1 25.6706 165.8477)" class="st2 st7">0.0</text>
	<line x1="38.5" y1="136.7" x2="36.5" y2="136.7"/>
	<line class="st6" x1="38.5" y1="136.7" x2="36.5" y2="136.7"/>
	<text transform="matrix(1 0 0 1 25.6706 138.8252)" class="st2 st7">0.2</text>
	<line x1="38.5" y1="109.7" x2="36.5" y2="109.7"/>
	<line class="st6" x1="38.5" y1="109.7" x2="36.5" y2="109.7"/>
	<text transform="matrix(1 0 0 1 25.6706 111.8027)" class="st2 st7">0.4</text>
	<line x1="38.5" y1="82.7" x2="36.5" y2="82.7"/>
	<line class="st6" x1="38.5" y1="82.7" x2="36.5" y2="82.7"/>
	<text transform="matrix(1 0 0 1 25.6706 84.7803)" class="st2 st7">0.6</text>
	<line x1="38.5" y1="55.6" x2="36.5" y2="55.6"/>
	<line class="st6" x1="38.5" y1="55.6" x2="36.5" y2="55.6"/>
	<text transform="matrix(1 0 0 1 25.6706 57.7588)" class="st2 st7">0.8</text>
	<line x1="38.5" y1="28.6" x2="36.5" y2="28.6"/>
	<line class="st6" x1="38.5" y1="28.6" x2="36.5" y2="28.6"/>
	<text transform="matrix(1 0 0 1 25.6706 30.7363)" class="st2 st7">1.0</text>
	<text transform="matrix(-6.123234e-17 -1 1 -6.123234e-17 22.2761 151.6406)" class="st2 st7">fraction w.r.t. bin with highest coverage</text>
	<g>
		<defs>
			<rect id="SVGID_9_" x="38.5" y="21.9" width="199.4" height="148.6"/>
		</defs>
		<clipPath id="SVGID_10_">
			<use xlink:href="#SVGID_9_"  style="overflow:visible;"/>
		</clipPath>
	</g>
	<g>
		<defs>
			<rect id="SVGID_11_" x="38.5" y="21.9" width="199.4" height="148.6"/>
		</defs>
		<clipPath id="SVGID_12_">
			<use xlink:href="#SVGID_11_"  style="overflow:visible;"/>
		</clipPath>
	</g>
	<g>
		<defs>
			<rect id="SVGID_13_" x="38.5" y="21.9" width="199.4" height="148.6"/>
		</defs>
		<clipPath id="SVGID_14_">
			<use xlink:href="#SVGID_13_"  style="overflow:visible;"/>
		</clipPath>
	</g>
	<g>
		<defs>
			<rect id="SVGID_15_" x="38.5" y="21.9" width="199.4" height="148.6"/>
		</defs>
		<clipPath id="SVGID_16_">
			<use xlink:href="#SVGID_15_"  style="overflow:visible;"/>
		</clipPath>
	</g>
	<line class="st12" x1="38.5" y1="170.5" x2="38.5" y2="21.9"/>
	<line class="st12" x1="237.9" y1="170.5" x2="237.9" y2="21.9"/>
	<line class="st12" x1="38.5" y1="170.5" x2="237.9" y2="170.5"/>
	<line class="st12" x1="38.5" y1="21.9" x2="237.9" y2="21.9"/>
</g>
<path class="st14" d="M230.3,27.7c-36.7,62.3-129,116-186,134.7"/>
<g>
	<path class="st4" d="M73.8,45.1c0,7.1-5.7,12.8-12.8,12.8c-7,0-12.8-5.8-12.8-12.8c0-7,5.8-12.8,12.9-12.8
		C68.1,32.3,73.8,38,73.8,45.1z M67.5,42c0-0.3-0.2-0.4-0.4-0.6c-0.7-0.7-1.4-1.3-2-2c-0.5-0.5-0.8-0.4-1.3,0c-0.5,0.5-1,1-1.5,1.5
		c-1,1-1.3,1-2.2,0c-0.5-0.5-1-1-1.5-1.5c-0.4-0.5-0.8-0.5-1.3,0c-0.6,0.7-1.3,1.3-2,1.9c-0.4,0.4-0.5,0.8,0,1.2
		c0.6,0.6,1.2,1.2,1.8,1.8c0.7,0.8,0.7,1.1,0,1.8c-0.6,0.6-1.2,1.2-1.8,1.8c-0.5,0.4-0.4,0.8,0,1.2c0.6,0.6,1.3,1.2,1.9,1.9
		c0.5,0.6,0.9,0.5,1.4,0c0.5-0.5,1-1,1.5-1.5c0.9-0.9,1.2-0.9,2,0c0.5,0.5,1.1,1.1,1.6,1.6c0.4,0.5,0.8,0.5,1.3,0
		c0.7-0.7,1.3-1.4,2-2c0.4-0.4,0.4-0.7,0-1.1c-0.7-0.7-1.3-1.3-2-2c-0.5-0.5-0.5-0.9,0-1.4c0.7-0.6,1.3-1.3,1.9-2
		C67.2,42.5,67.5,42.3,67.5,42z"/>
</g>
<g>
	<path class="st1" d="M316.4,44.4c0-7.1,5.7-12.8,12.7-12.8c7,0,12.8,5.8,12.8,12.8c0,7-5.8,12.8-12.9,12.8
		C322.1,57.1,316.4,51.4,316.4,44.4z M337.5,40.5c-0.1-0.4-0.4-0.6-0.8-0.4c-0.5,0.2-1,0.5-1.5,0.8c-2.3,1.3-4.6,2.6-6.9,3.9
		c-0.6,0.4-1.1,0.4-1.8,0c-1.5-0.9-3.1-1.7-4.7-2.6c-0.4-0.2-0.7-0.3-1,0.1c-0.3,0.4-0.1,0.7,0.2,0.9c0.6,0.8,1.3,1.7,1.9,2.5
		c1.3,1.8,2.7,3.5,4.1,5.3c0.6,0.8,0.9,0.8,1.6,0c0.4-0.4,0.7-0.9,1.1-1.3c2.4-2.7,4.9-5.4,7.3-8.1C337.2,41.3,337.5,41,337.5,40.5z
		"/>
</g>
</svg>
